<svg width="20" height="20" viewBox="0 0 20 20" fill="none" xmlns="http://www.w3.org/2000/svg">
<path d="M10 19.7101C9.47727 19.7101 9.28786 19.2863 9.28786 18.7636L9.05348 6.13545C9.05348 5.61271 9.47723 5.18896 9.99997 5.18896C10.5227 5.18896 10.9465 5.61271 10.9465 6.13545L10.7121 18.7636C10.7121 19.2863 10.5227 19.7101 10 19.7101Z" fill="#D5DEE4"/>
<path d="M10 5.18896C9.47726 5.18896 9.05351 5.61271 9.05351 6.13545L9.12195 9.8224C9.4041 9.8876 9.69804 9.92201 10 9.92201C10.3019 9.92201 10.5959 9.8876 10.8781 9.82244L10.9465 6.13549C10.9465 5.61275 10.5227 5.18896 10 5.18896Z" fill="#BCCBD3"/>
<path d="M10 8.71094C12.3947 8.71094 14.3359 6.76967 14.3359 4.375C14.3359 1.98033 12.3947 0.0390625 10 0.0390625C7.60533 0.0390625 5.66406 1.98033 5.66406 4.375C5.66406 6.76967 7.60533 8.71094 10 8.71094Z" fill="#FF473E"/>
<path d="M6.89479 3.4298C7.23802 3.65687 7.82918 3.36796 8.21518 2.78451C8.60119 2.20105 8.63587 1.54398 8.29265 1.31691C7.94943 1.08984 7.35827 1.37875 6.97226 1.96221C6.58625 2.54567 6.55157 3.20273 6.89479 3.4298Z" fill="#FD7085"/>
</svg>
