<svg width="24" height="24" viewBox="0 0 24 24" fill="none" xmlns="http://www.w3.org/2000/svg">
<path d="M20.4855 3.51448C20.7641 3.79305 20.9851 4.12378 21.1358 4.48777C21.2866 4.85175 21.3642 5.24187 21.3642 5.63585C21.3642 6.02983 21.2866 6.41995 21.1358 6.78394C20.9851 7.14792 20.7641 7.47865 20.4855 7.75723L9.40498 18.837C8.92434 19.3175 8.32213 19.6584 7.66273 19.8232L4.22623 20.6827C4.10054 20.7142 3.96884 20.7126 3.84397 20.678C3.71909 20.6435 3.6053 20.5771 3.51368 20.4855C3.42206 20.3939 3.35574 20.2801 3.32118 20.1552C3.28662 20.0304 3.285 19.8987 3.31648 19.773L4.17598 16.3365C4.34077 15.6771 4.68167 15.0749 5.16223 14.5942L16.2427 3.51448C16.5213 3.23588 16.852 3.01489 17.216 2.86412C17.58 2.71334 17.9701 2.63574 18.3641 2.63574C18.7581 2.63574 19.1482 2.71334 19.5122 2.86412C19.8762 3.01489 20.2069 3.23588 20.4855 3.51448V3.51448ZM15.1822 6.69748L6.22348 15.6547C5.93512 15.9432 5.73058 16.3045 5.63173 16.7002L5.07598 18.924L7.29973 18.3682C7.6955 18.2692 8.05689 18.0644 8.34523 17.7757L17.3025 8.81848L15.1815 6.69748H15.1822ZM17.3025 4.57498L16.242 5.63623L18.363 7.75723L19.425 6.69673C19.7063 6.41527 19.8644 6.03356 19.8643 5.63559C19.8642 5.23761 19.7061 4.85596 19.4246 4.5746C19.1431 4.29324 18.7614 4.13521 18.3635 4.13528C17.9655 4.13535 17.5838 4.29352 17.3025 4.57498V4.57498Z" fill="#C4C4C4"/>
</svg>
